<svg width="10" height="10" viewBox="0 0 10 10" fill="none" xmlns="http://www.w3.org/2000/svg">
<path d="M5.2098 9.36843H1.15781C0.569437 9.36843 0.369613 8.97988 0.813667 8.3915C0.813667 8.3915 4.25888 4.88623 3.56251 4.50604C3.44572 4.44228 3.14293 4.43759 2.92021 4.44031C1.64269 4.45589 1.75484 5.42617 1.17531 5.42182C0.9525 5.37943 0.83587 5.02776 0.83587 4.6059V4.09524C0.83587 3.95092 1.02459 3.8288 1.30213 3.8288H5.13209C5.72047 3.8288 5.90919 4.21735 5.46514 4.80573C5.46514 4.80573 3.53309 7.5146 3.00443 8.25473C2.47793 8.99183 3.93791 8.7483 4.05742 8.73911C5.13365 8.65632 4.89897 7.81423 5.32082 7.80313C5.52064 7.79202 5.65386 8.19168 5.66496 8.59133V9.102C5.66496 9.25742 5.48734 9.36843 5.2098 9.36843Z" fill="#2420D6"/>
<path fill-rule="evenodd" clip-rule="evenodd" d="M8.04042 0.5408C8.16886 0.520505 8.32263 0.638646 8.37136 0.778944C8.43801 0.970852 8.36725 1.14679 8.28069 1.28307C8.1119 1.5488 7.79682 2.09151 7.94134 2.19165C8.08585 2.2918 8.43765 1.8492 8.66954 1.57243C8.8454 1.36252 8.98112 1.30095 9.12922 1.33131C9.31027 1.36841 9.39973 1.50271 9.41951 1.63489C9.42932 1.70046 9.42218 1.7663 9.40014 1.8202C9.39119 1.84208 9.37958 1.86239 9.36539 1.8799C9.38659 1.8857 9.40738 1.89504 9.42696 1.90714C9.47565 1.9372 9.51934 1.98553 9.548 2.04524C9.60618 2.16646 9.56082 2.44139 9.40014 2.52317C9.18835 2.63095 9.0856 2.59335 8.91322 2.54479C8.60161 2.45701 8.0771 2.30374 8.01318 2.45701C7.94925 2.61028 8.40333 2.83696 8.7373 2.96651C8.95312 3.05022 9.08491 3.09928 9.16375 3.30021C9.2426 3.50115 9.09161 3.69175 8.97727 3.75223C8.92056 3.78224 8.85836 3.79549 8.80243 3.79026C8.77973 3.78814 8.75763 3.7829 8.7373 3.77423C8.73856 3.79706 8.73647 3.82058 8.7315 3.84376C8.71915 3.90138 8.68862 3.95968 8.64306 4.00658C8.52126 4.10065 8.34771 4.14398 8.18612 4.00658C8.02454 3.86919 8.01318 3.75164 8.01318 3.48121C8.01318 3.14384 7.9603 2.61028 7.79355 2.61028C7.6268 2.61028 7.50901 3.17216 7.50901 3.4854C7.50901 3.73062 7.54421 3.8858 7.35976 4.00658C7.21378 4.10218 7.00166 4.06238 6.91121 3.96758C6.86635 3.92055 6.83505 3.8629 6.82253 3.80578C6.81744 3.78258 6.81539 3.75903 6.81701 3.73617C6.7966 3.74448 6.77452 3.74967 6.75186 3.7519C6.69554 3.75744 6.63298 3.74515 6.57616 3.71442C6.46083 3.65205 6.30712 3.51735 6.39862 3.30021C6.48092 3.10491 6.64566 3.03715 6.81701 2.96651C7.06091 2.86596 7.64002 2.61028 7.58602 2.43965C7.53897 2.29099 6.93563 2.40693 6.61536 2.48926C6.47397 2.52561 6.24993 2.50666 6.14721 2.39125C6.02163 2.25016 6.01813 2.10231 6.07656 1.98324C6.10555 1.92417 6.14841 1.87529 6.1966 1.84521C6.21616 1.833 6.23699 1.82368 6.25832 1.81822C6.24444 1.80053 6.23289 1.78021 6.22385 1.75841C6.2014 1.70422 6.19327 1.63832 6.20371 1.57243C6.2249 1.43867 6.3031 1.34523 6.50716 1.30669C6.65629 1.27852 6.8448 1.38908 6.95727 1.54145C7.18149 1.84521 7.53721 2.30582 7.67735 2.18092C7.79355 2.07735 7.53721 1.57243 7.35976 1.30669C7.24905 1.14088 7.17686 0.999221 7.24388 0.778944C7.29938 0.596507 7.50024 0.520328 7.6268 0.541539C7.68958 0.552061 7.74736 0.579501 7.78966 0.618035C7.80684 0.63368 7.82176 0.651477 7.83333 0.670968C7.84516 0.65172 7.8601 0.633977 7.87718 0.618271C7.91961 0.579234 7.97715 0.550798 8.04042 0.5408Z" fill="#2420D6"/>
</svg>
