<svg width="27" height="12" viewBox="0 0 27 12" fill="none" xmlns="http://www.w3.org/2000/svg">
<path d="M17.6702 9.44752C17.3946 9.18254 17.4593 9.04565 17.6702 8.83472C18.5087 8.18976 18.1956 3.81962 17.8699 2.21836C17.6648 1.27897 17.2218 2.19363 17.155 1.68166C17.2344 0.898601 18.6318 0.293668 19.3561 0.635997C20.1711 1.02114 19.5513 3.10713 19.5069 5.12811C19.7849 4.47108 20.3308 3.76439 21.4418 3.772C22.5908 3.77987 23.1684 4.62966 23.1684 5.6954C23.1684 6.23937 23.1688 7.05953 23.1878 7.72565C23.2433 8.19191 23.4435 8.38382 23.9542 8.38382C24.043 8.38382 24.1651 8.37273 24.1651 8.61696C24.1651 9.26084 23.277 9.57169 22.7108 9.57169C21.745 9.57169 21.4675 8.63915 21.4675 7.79544C21.4675 7.31808 21.4679 6.57132 21.4679 5.80532C21.4679 5.53888 21.4527 5.01187 20.6693 4.87541C20.3509 4.82992 19.6939 5.118 19.512 5.70428C19.512 7.45832 19.545 8.26564 19.9779 8.83472C20.1888 9.04565 20.2296 9.22554 20.0639 9.44752C19.8982 9.66951 17.9459 9.71251 17.6702 9.44752Z" fill="black"/>
<path d="M5.3016 9.47005H1.24961C0.661234 9.47005 0.46141 9.0815 0.905464 8.49312C0.905464 8.49312 4.35068 4.98785 3.65431 4.60766C3.53751 4.5439 3.23473 4.53921 3.01201 4.54193C1.73449 4.55751 1.84664 5.52779 1.26711 5.52344C1.0443 5.48105 0.927667 5.12938 0.927667 4.70752V4.19685C0.927667 4.05253 1.11639 3.93042 1.39392 3.93042H5.22389C5.81226 3.93042 6.00099 4.31897 5.55693 4.90735C5.55693 4.90735 3.62489 7.61621 3.09622 8.35635C2.56973 9.09345 4.02971 8.84992 4.14922 8.84073C5.22545 8.75794 4.99076 7.91584 5.41261 7.90474C5.61244 7.89364 5.74566 8.2933 5.75676 8.69295V9.20362C5.75676 9.35904 5.57914 9.47005 5.3016 9.47005Z" fill="black"/>
<path d="M7.47872 6.18146C8.65336 6.01549 9.06747 5.69542 9.06628 5.06082C9.06525 4.50988 8.64081 4.20026 8.19357 4.3152C7.45648 4.50464 7.42503 5.10867 7.47872 6.18146ZM5.77666 6.62638C5.77666 4.88345 6.88679 3.70669 8.64081 3.70669C9.73984 3.70669 10.8056 4.4594 10.8056 5.2831C10.8056 6.52618 8.67767 6.57932 7.47872 6.59042C7.55974 7.87327 8.14328 9.22466 8.98887 9.13865C9.6928 9.06705 9.72659 8.40007 9.76726 8.02285C9.81658 7.56539 9.99517 7.27026 10.4614 7.27026C10.9055 7.27026 11.1608 7.59221 11.1608 8.02516C11.1608 8.89108 10.1728 9.56827 8.80733 9.56827C7.10882 9.56827 5.77666 8.51363 5.77666 6.62638Z" fill="black"/>
<path d="M13.4866 6.74531C13.5086 8.13423 14.0199 8.80917 14.4682 8.83472C15.1454 8.83472 15.554 8.10421 15.554 6.71653C15.554 5.33995 15.1765 4.37412 14.4883 4.37412C14.022 4.37412 13.4585 4.97287 13.4866 6.74531ZM11.3306 11.6506C11.1761 11.4135 11.2042 11.255 11.3987 11.0718C11.5933 10.8886 11.6408 10.897 11.7649 10.1614C11.8712 9.49661 11.8801 9.51433 11.8801 7.87461C11.8801 7.87461 11.8181 6.2061 11.6907 5.53978C11.5634 4.87345 11.2023 5.57039 11.1356 5.11792C11.2987 4.13018 12.2236 3.93006 12.8897 3.93006C13.1894 3.93006 13.4558 4.10769 13.4669 4.36302C13.8555 4.01888 14.3772 3.81905 14.9767 3.81905C16.4643 3.81905 17.3302 4.9958 17.3302 6.79424C17.3203 8.55602 16.2682 9.50747 14.9497 9.44752C14.1415 9.41078 13.5339 9.02 13.1727 8.24704C13.1727 8.24704 13.1596 9.35847 13.2292 10.0744C13.2989 10.7902 13.4147 10.8611 13.6254 11.0718C13.8361 11.2824 13.8213 11.5043 13.6254 11.7011C13.4295 11.8979 11.485 11.8877 11.3306 11.6506Z" fill="black"/>
<path fill-rule="evenodd" clip-rule="evenodd" d="M25.1322 0.642418C25.2607 0.622123 25.4144 0.740263 25.4632 0.880562C25.5298 1.07247 25.459 1.24841 25.3725 1.38468C25.2037 1.65042 24.8886 2.19312 25.0331 2.29327C25.1776 2.39342 25.5294 1.95082 25.7613 1.67405C25.9372 1.46414 26.0729 1.40257 26.221 1.43292C26.4021 1.47003 26.4915 1.60432 26.5113 1.73651C26.5211 1.80208 26.514 1.86792 26.4919 1.92181C26.483 1.9437 26.4714 1.96401 26.4572 1.98151C26.4784 1.98731 26.4992 1.99666 26.5188 2.00876C26.5674 2.03882 26.6111 2.08714 26.6398 2.14686C26.698 2.26808 26.6526 2.543 26.4919 2.62478C26.2802 2.73257 26.1774 2.69497 26.005 2.64641C25.6934 2.55863 25.1689 2.40536 25.105 2.55863C25.041 2.7119 25.4951 2.93858 25.8291 3.06812C26.0449 3.15184 26.1767 3.20089 26.2555 3.40183C26.3344 3.60277 26.1834 3.79337 26.0691 3.85385C26.0124 3.88385 25.9502 3.8971 25.8942 3.89188C25.8715 3.88976 25.8494 3.88452 25.8291 3.87584C25.8304 3.89868 25.8283 3.9222 25.8233 3.94538C25.8109 4.003 25.7804 4.0613 25.7349 4.1082C25.6131 4.20227 25.4395 4.2456 25.2779 4.1082C25.1163 3.97081 25.105 3.85326 25.105 3.58283C25.105 3.24546 25.0521 2.7119 24.8853 2.7119C24.7186 2.7119 24.6008 3.27378 24.6008 3.58702C24.6008 3.83224 24.636 3.98742 24.4516 4.1082C24.3056 4.20379 24.0935 4.164 24.003 4.0692C23.9581 4.02217 23.9268 3.96452 23.9143 3.90739C23.9092 3.8842 23.9072 3.86065 23.9088 3.83778C23.8884 3.84609 23.8663 3.85128 23.8437 3.85351C23.7873 3.85906 23.7248 3.84677 23.668 3.81604C23.5526 3.75367 23.3989 3.61897 23.4904 3.40183C23.5727 3.20653 23.7375 3.13877 23.9088 3.06812C24.1527 2.96757 24.7318 2.7119 24.6778 2.54127C24.6308 2.3926 24.0274 2.50855 23.7072 2.59088C23.5658 2.62723 23.3417 2.60827 23.239 2.49286C23.1134 2.35178 23.1099 2.20393 23.1684 2.08486C23.1973 2.02579 23.2402 1.97691 23.2884 1.94683C23.308 1.93461 23.3288 1.9253 23.3501 1.91984C23.3362 1.90215 23.3247 1.88183 23.3157 1.86003C23.2932 1.80584 23.2851 1.73994 23.2955 1.67405C23.3167 1.54029 23.3949 1.44685 23.599 1.40831C23.7481 1.38014 23.9366 1.4907 24.0491 1.64307C24.2733 1.94683 24.629 2.40744 24.7691 2.28253C24.8853 2.17897 24.629 1.67405 24.4516 1.40831C24.3408 1.2425 24.2687 1.10084 24.3357 0.880562C24.3912 0.698125 24.592 0.621946 24.7186 0.643157C24.7814 0.653679 24.8392 0.681119 24.8815 0.719653C24.8986 0.735297 24.9136 0.753094 24.9251 0.772585C24.937 0.753338 24.9519 0.735595 24.969 0.719888C25.0114 0.680852 25.0689 0.652416 25.1322 0.642418Z" fill="black"/>
</svg>
